<svg xmlns="http://www.w3.org/2000/svg" width="32" height="32" viewBox="0 0 32 32"><path d="M957.856,186.391a12.5,12.5,0,0,0-12.728,12.235V209.92a2.94,2.94,0,0,0,5.875,0v-9.412a2.885,2.885,0,0,0-2.937-2.823,3.01,3.01,0,0,0-.938.161,10.8,10.8,0,0,1,21.457-.008,2.986,2.986,0,0,0-.937-.153,2.885,2.885,0,0,0-2.937,2.823v9.412a2.885,2.885,0,0,0,2.937,2.824,3.008,3.008,0,0,0,.979-.173v1.115a.962.962,0,0,1-.979.941h-7.034a2.927,2.927,0,0,0-2.757-1.882,2.826,2.826,0,1,0,0,5.647,2.927,2.927,0,0,0,2.757-1.882h7.034a2.885,2.885,0,0,0,2.937-2.823V198.626a12.5,12.5,0,0,0-12.728-12.235Zm0,0" transform="translate(-941.856 -186.391)" fill="#fff"/><path d="M1366.777,399.989V409.5a2.45,2.45,0,0,0,1.636-2.3v-4.908a2.45,2.45,0,0,0-1.636-2.3Zm0,0" transform="translate(-1336.413 -385.731)" fill="#fff"/><path d="M884.894,402.292V407.2a2.45,2.45,0,0,0,1.636,2.3v-9.515a2.451,2.451,0,0,0-1.636,2.3Zm0,0" transform="translate(-884.894 -385.731)" fill="#fff"/></svg>