<svg xmlns="http://www.w3.org/2000/svg" width="88.08" height="28.964" viewBox="0 0 88.08 28.964"><g transform="translate(-1592.116 -4504.986)"><g transform="translate(1341.21 4367.121)"><g transform="translate(285.028 138.337)"><g transform="translate(0 0)"><path d="M406.658,169.944l-2.914,2.74q-1.1-2.434-4.351-2.471-3.187-.036-3.189,1.678,0,1.167,2.844,1.716a30.832,30.832,0,0,1,5.243,1.238,4.18,4.18,0,0,1,2.842,4.047,5.279,5.279,0,0,1-2.367,4.59,9.165,9.165,0,0,1-5.348,1.471q-5.623,0-8.4-3.159l3.155-2.432q1.471,2.161,5,2.163a4.454,4.454,0,0,0,2.434-.65,1.7,1.7,0,0,0,.927-1.37q0-1.131-2.775-1.682a36,36,0,0,1-5.175-1.305,4.264,4.264,0,0,1-2.773-4.116,4.819,4.819,0,0,1,2.231-4.283,9.763,9.763,0,0,1,5.45-1.333A8.666,8.666,0,0,1,406.658,169.944Z" transform="translate(-391.021 -160.214)" fill="#fff"/><path d="M478.546,172.527l-.006,9.151a6.974,6.974,0,0,0,.83,3.314l-4.421,0a4.368,4.368,0,0,1-.592-1.976A8.757,8.757,0,0,1,468.7,185a6.113,6.113,0,0,1-4.215-1.494,5.036,5.036,0,0,1-1.677-3.961q0-4.387,5.282-5.412l1.748-.342q1.75-.341,4.525-1.025v-.514q0-2.194-3.288-2.2a4.054,4.054,0,0,0-2.519.582,2.5,2.5,0,0,0-.7,2.021l-4.182-.173a4.913,4.913,0,0,1,2.265-4.352,9.229,9.229,0,0,1,5.142-1.3,10.614,10.614,0,0,1,5.141,1Q478.548,169.168,478.546,172.527Zm-4.187,5.859,0-2.468a8.635,8.635,0,0,1-1.988.615l-2.3.478a5.845,5.845,0,0,0-2.023.719,1.855,1.855,0,0,0-.858,1.679,1.881,1.881,0,0,0,.77,1.559,3.051,3.051,0,0,0,1.936.6,5.645,5.645,0,0,0,2.948-.752A2.718,2.718,0,0,0,474.359,178.386Z" transform="translate(-445.326 -160.249)" fill="#fff"/><path d="M543.3,164.535l.016-24.733,4.182,0-.016,24.732Z" transform="translate(-506.217 -139.802)" fill="#fff"/><path d="M580.038,146.829l0-7,4.182,0-.005,7,3.737,0,0,3.016-3.736,0-.01,8.952a2.66,2.66,0,0,0,.342,1.577,1.825,1.825,0,0,0,1.542.55l1.85-.2,0,3.427a17.08,17.08,0,0,1-3.325.409q-4.592,0-4.59-4.185l.011-10.528Z" transform="translate(-533.997 -139.821)" fill="#fff"/></g></g><g transform="translate(250.906 137.865)"><path d="M265.515,164.4a11.926,11.926,0,1,1,11.927-11.927A11.94,11.94,0,0,1,265.515,164.4m11.879-3.957a14.482,14.482,0,0,0-12-22.581h-.006a14.489,14.489,0,0,0-13.342,20.119,14.476,14.476,0,0,0,13.34,8.845h0a14.466,14.466,0,0,0,12.007-6.383" transform="translate(-250.906 -137.865)" fill="#fff"/><path d="M296.206,160.916a2.722,2.722,0,0,0-3.832-.273l-4.638,4.172v7.058l7.125-6.215h0l1.044-.911a2.721,2.721,0,0,0,.3-3.831" transform="translate(-278.767 -154.596)" fill="#fff"/><path d="M298.466,183.835l-7.373,6.432,2.33.24,7.371-6.43Z" transform="translate(-281.306 -172.64)" fill="#fff"/><path d="M297.507,197.2a2.722,2.722,0,0,0,3.832.273l4.638-4.172,0-7.067-7.109,6.2h.007l-1.069.933a2.721,2.721,0,0,0-.3,3.831" transform="translate(-285.667 -174.454)" fill="#fff"/></g></g></g></svg>